<svg xmlns="http://www.w3.org/2000/svg" width="1366" height="962.651" viewBox="0 0 1366 962.651"><circle cx="74.391" cy="74.391" r="74.391" transform="translate(623.253 811.829)" fill="#048041"></circle><path d="M1429.372,1202.841c41.618-12.5,85.863-25.532,118.868-55.245,29.494-26.551,49.405-67.1,37.187-106.915-12.194-39.737-48.717-66.234-86.425-79.413-21.387-7.474-43.763-11.621-66.129-14.879-24.314-3.541-48.736-6.442-73.146-9.234q-148.259-16.957-297.634-20.718c-49.138-1.238-98.266-1.208-147.411-.494-43.89.637-90.113.621-130.829-18.033-31.662-14.506-60.4-40.9-69.221-75.577-10.184-40.033,8.6-80.8,35.546-109.794,14.2-15.283,30.8-28.145,47.927-39.973,18.577-12.831,37.8-24.753,57.444-35.882a799.934,799.934,0,0,1,120.912-55.742c20.612-7.495,41.53-13.961,62.63-19.926,17.817-5.037,35.689-10.081,52.908-16.944,33.287-13.267,64.948-35.74,73.412-72.582,8.022-34.917-5.5-72.823-29.214-98.763-27.432-30.01-68.794-43.166-108.449-45.294-44.519-2.39-88.011,8.752-129.855,22.893-44.629,15.082-88.3,32.423-133.868,44.64a900.7,900.7,0,0,1-137.777,25.611C603.472,423,580.01,425.74,557.1,423.884c-19.2-1.556-38.3-7.2-52.452-20.829-12.133-11.684-19.361-27.741-16.876-44.687.451-3.078,5.127-1.769,4.678,1.29-3.025,20.627,11,39.635,28.275,49.372,19.969,11.253,44.269,11.268,66.5,9.981a869.777,869.777,0,0,0,143.145-20.693c46.239-10.561,90.827-25.659,135.365-41.787,42.3-15.317,85.544-30.267,130.734-33.585,39.211-2.879,80.458,2.834,114.617,23.325,30.021,18.009,52.1,48.042,59.132,82.506,6.874,33.677-2.646,67.574-28.139,91.075-26.395,24.333-62.586,34.736-96.314,44.317-42.778,12.152-84.639,26.357-125.158,44.8a785.683,785.683,0,0,0-117.731,66.188c-35.977,24.585-71.481,55.519-82.859,99.378-5.3,20.43-4.322,42.1,4.547,61.4,7.885,17.158,20.872,31.591,36,42.724,36.1,26.561,81.592,32.015,125.193,32.557,48.971.609,97.943-1.043,146.93-.239q149.75,2.458,298.887,18.23,37.37,3.956,74.646,8.744c22.352,2.872,44.779,5.726,66.755,10.827,39.075,9.07,77.1,26.508,101.385,59.639a99.167,99.167,0,0,1,19.321,49.237c1.7,18.636-2.862,37.307-11.288,53.886-18.65,36.695-53.583,60.035-90.681,75.369-19.87,8.213-40.481,14.435-61.052,20.613-3,.9-4.277-3.781-1.29-4.678Z" transform="translate(-287.314 -246.41)" fill="#f2f2f2"></path><circle cx="38.813" cy="38.813" r="38.813" transform="translate(164.78 73.582)" fill="#c8e7e5"></circle><circle cx="38.813" cy="38.813" r="38.813" transform="translate(434.042 147.164)" fill="#c8e7e5"></circle><circle cx="38.813" cy="38.813" r="38.813" transform="translate(662.066)" fill="#c8e7e5"></circle><circle cx="38.813" cy="38.813" r="38.813" transform="translate(804.379 164.953)" fill="#f2f2f2"></circle><circle cx="38.813" cy="38.813" r="38.813" transform="translate(611.933 355.782)" fill="#c8e7e5"></circle><circle cx="38.813" cy="38.813" r="38.813" transform="translate(367.738 447.961)" fill="#c8e7e5"></circle><circle cx="38.813" cy="38.813" r="38.813" transform="translate(626.488 591.891)" fill="#f2f2f2"></circle><circle cx="38.813" cy="38.813" r="38.813" transform="translate(904.644 672.751)" fill="#f2f2f2"></circle><circle cx="38.813" cy="38.813" r="38.813" transform="translate(1229.699 654.962)" fill="#c8e7e5"></circle><path d="M976.989,356.385c-116.263.821-211.457,95.3-213.108,211.554-.015,1.073-.022,8.62-.021,18.491A54.576,54.576,0,0,0,818.427,641h0a54.608,54.608,0,0,0,54.6-54.645c-.006-6.727-.009-11.374-.009-11.66a103.5,103.5,0,1,1,159.326,87.133l.019.023s-77.671,50-101.351,118.6l.02,0a152.024,152.024,0,0,0-6.264,43.289c0,6.025.354,58.739,1.039,101.523a56.256,56.256,0,0,0,56.262,55.344h0a56.271,56.271,0,0,0,56.268-56.619c-.238-39.183-.366-84.808-.366-88.12,0-42.119,40.632-84.085,74.009-111.452,38.434-31.514,66.091-74.46,77.2-122.9a140.308,140.308,0,0,0,4.042-30.457A214.682,214.682,0,0,0,976.989,356.385Z" transform="translate(-287.314 -246.41)" fill="#048041"></path><path d="M1651.393,1209.061H289.239a1.926,1.926,0,0,1,0-3.851H1651.388a1.926,1.926,0,0,1,0,3.851Z" transform="translate(-287.314 -246.41)" fill="#3f3d56"></path><circle cx="48.516" cy="48.516" r="48.516" transform="translate(967.805 344.455)" fill="#2f2e41"></circle><path d="M926.669,941.413H906.844l-9.433-76.474h29.263Z" fill="#a0616a"></path><path d="M892.682,935.748h38.237v24.075H868.607a24.075,24.075,0,0,1,24.075-24.075Z" fill="#2f2e41"></path><path d="M1080.3,941.413h-19.825l-9.433-76.474h29.263Z" fill="#a0616a"></path><path d="M1046.315,935.748h38.237v24.075H1022.24A24.075,24.075,0,0,1,1046.315,935.748Z" fill="#2f2e41"></path><circle cx="39.72" cy="39.72" r="39.72" transform="translate(969.228 362.33)" fill="#a0616a"></circle><path d="M1319.935,816.317l17.772-40.834a50.752,50.752,0,0,0-11.239-57.572,51.559,51.559,0,0,0-4.965-4.318,50.029,50.029,0,0,0-30.71-10.625,52.039,52.039,0,0,0-21.67,4.819c-.583.259-1.148.534-1.731.809-1.116.534-2.215,1.116-3.283,1.714a51.229,51.229,0,0,0-25.39,38.618l-7.844,65.723c-1.972,5.159-72.353,191.459-47.739,333.691a7.224,7.224,0,0,0,6.177,5.935l24.953,3.4a7.272,7.272,0,0,0,8.1-5.709l41.869-199.577a5.665,5.665,0,0,1,11-.372l59.157,209.879a7.231,7.231,0,0,0,6.97,5.3,8.278,8.278,0,0,0,1.407-.13l30.483-5.87a7.231,7.231,0,0,0,5.871-7.779C1374.645,1103.465,1350.84,853.237,1319.935,816.317Z" transform="translate(-287.314 -246.41)" fill="#2f2e41"></path><path d="M1141.9,681.514a16.262,16.262,0,0,0,17.133,18.117l22.2,53.355,16.795-24.9-23.659-46.85a16.35,16.35,0,0,0-32.471.273Z" transform="translate(-287.314 -246.41)" fill="#a0616a"></path><path d="M1294.059,870.041a16.262,16.262,0,0,0,13.627-20.883l46.713-34.023L1326.276,804.6l-40.048,33.924a16.35,16.35,0,0,0,7.831,31.514Z" transform="translate(-287.314 -246.41)" fill="#a0616a"></path><path d="M1217.909,788.558a27.584,27.584,0,0,1-5.334-.526,26.369,26.369,0,0,1-19.321-15.551l-31.106-37.928a7.279,7.279,0,0,1,1.8-10.8l22.13-13.7a7.278,7.278,0,0,1,10.052,2.41l21.923,36.118,41.984-31.028a15.721,15.721,0,0,1,18.29,25.167l-41.9,38.225A26.284,26.284,0,0,1,1217.909,788.558Z" transform="translate(-287.314 -246.41)" fill="#2f2e41"></path><path d="M1331.354,845.6c-.057,0-.114,0-.171,0a7.29,7.29,0,0,1-5.354-2.54l-19.675-22.953a7.277,7.277,0,0,1,1.488-10.791l36.842-24.561-33.376-40.127a15.721,15.721,0,0,1,24.075-19.7l40.565,39.642a26.724,26.724,0,0,1-5.944,43.568l-33.154,35.18a7.29,7.29,0,0,1-5.3,2.285Z" transform="translate(-287.314 -246.41)" fill="#2f2e41"></path><path d="M1286.162,761.023a7.486,7.486,0,0,1-.943-.06,7.214,7.214,0,0,1-6-4.963l-14.785-45.329a4.985,4.985,0,0,1,2.578-6.023l.48-.227c.435-.207.866-.411,1.306-.607a52.678,52.678,0,0,1,22-4.889,50.662,50.662,0,0,1,27.753,8.339,5.062,5.062,0,0,1,1.458,6.945l-27.735,43.45a7.2,7.2,0,0,1-6.108,3.364Z" transform="translate(-287.314 -246.41)" fill="#b4e3e0"></path><circle cx="15.875" cy="15.875" r="15.875" transform="translate(1038.695 339.56)" fill="#2f2e41"></circle><path d="M1287.462,584.4h0a42.047,42.047,0,0,0-42.047,42.047v17.789h21.879l10.464-17.789,3.14,17.789h66.4l-17.789-17.789a42.047,42.047,0,0,0-42.047-42.047Z" transform="translate(-287.314 -246.41)" fill="#2f2e41"></path><path d="M1350.044,590.971a24.5,24.5,0,0,1,26.653-16.812c10.117,1.691,18.116,9.824,22.882,18.907s6.967,19.249,10.171,28.993,7.748,19.541,15.837,25.849,20.5,8.019,28.446,1.53a32.535,32.535,0,0,1-60.608,11.613c-4.192-7.458-5.274-16.2-6.517-24.664s-2.858-17.223-7.863-24.161-14.373-11.471-22.323-8.31Z" transform="translate(-287.314 -246.41)" fill="#2f2e41"></path><path d="M833.837,615.192h0a54.576,54.576,0,0,1-54.571-54.567c0-9.877.006-17.424.021-18.5a212.671,212.671,0,0,1,24.838-96.884A213.151,213.151,0,0,0,763.116,568c-.015,1.073-.022,8.62-.021,18.491a54.576,54.576,0,0,0,54.567,54.574h0A54.617,54.617,0,0,0,870.2,601.3a54.374,54.374,0,0,1-36.367,13.893Z" transform="translate(-287.314 -246.41)" fill="#3f3d56"></path><path d="M980.688,471.375a103.506,103.506,0,0,1,90.011,144.6A103.5,103.5,0,1,0,896.971,507.645a103.291,103.291,0,0,1,83.717-36.27Z" transform="translate(-287.314 -246.41)" fill="#3f3d56"></path><path d="M997.478,954.8h0a56.26,56.26,0,0,1-56.262-55.357c-.684-42.772-1.039-95.486-1.039-101.511a152.022,152.022,0,0,1,6.264-43.289l-.02,0a153.719,153.719,0,0,1,8.885-20.54,177.972,177.972,0,0,0-25.057,46.415l.02,0A152.024,152.024,0,0,0,924,823.809c0,6.025.355,58.739,1.039,101.523a56.257,56.257,0,0,0,56.262,55.344h0a56.28,56.28,0,0,0,54.014-40.5A56.052,56.052,0,0,1,997.478,954.8Z" transform="translate(-287.314 -246.41)" fill="#3f3d56"></path><path d="M204.641,942.15l19.825,0,9.433-76.474-29.263,0Z" fill="#ffb8b8"></path><path d="M487.706,1182.895h62.312v24.075H511.781a24.075,24.075,0,0,1-24.075-24.075Z" transform="translate(750.463 2143.43) rotate(179.997)" fill="#2f2e41"></path><path d="M133.484,942.15l19.825,0,9.433-76.474-29.263,0Z" fill="#ffb8b8"></path><path d="M416.549,1182.895h62.312v24.075H440.624a24.075,24.075,0,0,1-24.075-24.075Z" transform="translate(608.151 2143.433) rotate(179.997)" fill="#2f2e41"></path><path d="M438.124,1165.041l-19.366-1.019a7.558,7.558,0,0,1-7.146-8.033L434.759,899.72,541.35,928.483l10.27-2.8L519.5,1152.548a7.6,7.6,0,0,1-7.048,6.379l-20.876.973a7.559,7.559,0,0,1-7.975-7.755l3.783-136.162a2.52,2.52,0,0,0-4.986-.582l-36.479,143.626a7.513,7.513,0,0,1-7.389,6.025C438.4,1165.052,438.262,1165.049,438.124,1165.041Z" transform="translate(-287.314 -246.41)" fill="#2f2e41"></path><circle cx="39.72" cy="39.72" r="39.72" transform="translate(168.48 364.188)" fill="#ffb8b8"></circle><path d="M429.383,767.012l4.367,94.23,1.579,34.282a7.507,7.507,0,0,0,4.972,6.752l102.426,37.1a7.235,7.235,0,0,0,2.587.454,7.509,7.509,0,0,0,7.542-7.743l-4.2-169.428a59.723,59.723,0,0,0-49.719-57.7c-.991-.151-2-.3-3.007-.437A58.622,58.622,0,0,0,448.767,719.8a60.218,60.218,0,0,0-19.383,47.215Z" transform="translate(-287.314 -246.41)" fill="#b4e3e0"></path><path d="M591.657,920.577a16.275,16.275,0,0,1-8.682-24.624l-34.734-46.187,29.973-1.855L606.6,892.055a16.351,16.351,0,0,1-14.946,28.522Z" transform="translate(-287.314 -246.41)" fill="#ffb8b8"></path><path d="M567.234,887.594a7.511,7.511,0,0,1-4.109-4.073L510.8,758.845a20.156,20.156,0,1,1,37.17-15.6L600.3,867.922a7.567,7.567,0,0,1-4.044,9.894l-23.232,9.75a7.506,7.506,0,0,1-5.785.028Z" transform="translate(-287.314 -246.41)" fill="#b4e3e0"></path><path d="M482.744,883.2,533,786.96a7.889,7.889,0,0,1,10.633-3.337l72.954,38.1a7.889,7.889,0,0,1,3.337,10.633l-50.261,96.237a7.889,7.889,0,0,1-10.633,3.337l-72.954-38.1a7.889,7.889,0,0,1-3.336-10.633Z" transform="translate(-287.314 -246.41)" fill="#3f3d56"></path><path d="M516.451,839.229a16.275,16.275,0,0,0-25.094-7.213L443.2,800.07l-.082,30.031,45.742,25.732a16.351,16.351,0,0,0,27.59-16.6Z" transform="translate(-287.314 -246.41)" fill="#ffb8b8"></path><path d="M455.564,845.983l-39.357-31.176a27.756,27.756,0,0,1-12.652-43.883l35.735-46.833a16.327,16.327,0,0,1,27.7,16.632l-28.275,46.252,41.552,19.708a7.558,7.558,0,0,1,3.15,10.867l-16.773,26.545a7.572,7.572,0,0,1-5.121,3.414l-.125.02A7.593,7.593,0,0,1,455.564,845.983Z" transform="translate(-287.314 -246.41)" fill="#b4e3e0"></path><path d="M465.5,676.913a3.452,3.452,0,0,1,3-4.559,7.974,7.974,0,0,1,5.622,2.773,22.373,22.373,0,0,0,4.967,4.265c1.921.968,4.527.83,5.623-1.016,1.029-1.734.324-4.056-.3-6.07a59.683,59.683,0,0,1-2.636-15.8c-.179-5.984.665-12.229,3.978-16.9,4.276-6.024,11.921-8.31,19.156-8.145s14.353,2.4,21.52,3.811c2.474.487,5.382.737,7.037-1.181,1.76-2.039,1.113-5.339.365-8.092-1.942-7.144-4-14.53-8.515-20.3a30.562,30.562,0,0,0-19.5-10.981,46.8,46.8,0,0,0-21.771,2.472,58.375,58.375,0,0,0-28.6,19.922,47.28,47.28,0,0,0-9.021,34.932,43.126,43.126,0,0,0,15.987,27.257Z" transform="translate(-287.314 -246.41)" fill="#2f2e41"></path><path d="M968.567,1188.875a74.38,74.38,0,0,1-27.606-115.611,74.386,74.386,0,1,0,101.186,107.485,74.341,74.341,0,0,1-73.58,8.126Z" transform="translate(-287.314 -246.41)" fill="#3f3d56"></path></svg>